<mxfile host="app.diagrams.net" modified="2024-06-20T08:58:53.330Z" agent="Mozilla/5.0 (Windows NT 10.0; Win64; x64) AppleWebKit/537.36 (KHTML, like Gecko) Chrome/126.0.0.0 Safari/537.36" etag="rd-j0MQZMdobovBmy5dF" version="24.5.2" type="device">
  <diagram name="페이지-1" id="phTsc2Tl7uBkWWfXx_4h">
    <mxGraphModel dx="2876" dy="2272" grid="1" gridSize="10" guides="1" tooltips="1" connect="1" arrows="1" fold="1" page="1" pageScale="1" pageWidth="827" pageHeight="1169" math="0" shadow="0">
      <root>
        <mxCell id="0" />
        <mxCell id="1" parent="0" />
        <mxCell id="TU5sISVLhS4vJqzaJQvi-2" value="" style="rounded=0;whiteSpace=wrap;html=1;rotation=90;" vertex="1" parent="1">
          <mxGeometry x="160" y="-420" width="1051.25" height="868.13" as="geometry" />
        </mxCell>
        <mxCell id="TU5sISVLhS4vJqzaJQvi-3" value="&lt;font style=&quot;font-size: 33px;&quot;&gt;Actor&lt;/font&gt;" style="shape=umlActor;verticalLabelPosition=bottom;verticalAlign=top;html=1;outlineConnect=0;" vertex="1" parent="1">
          <mxGeometry x="-30" y="-130" width="130" height="250" as="geometry" />
        </mxCell>
        <mxCell id="TU5sISVLhS4vJqzaJQvi-10" value="" style="image;html=1;image=img/lib/clip_art/computers/Database_128x128.png" vertex="1" parent="1">
          <mxGeometry x="1241" y="-130" width="190" height="210" as="geometry" />
        </mxCell>
        <mxCell id="TU5sISVLhS4vJqzaJQvi-11" value="&lt;font style=&quot;font-size: 30px;&quot;&gt;BookID&lt;/font&gt;" style="ellipse;whiteSpace=wrap;html=1;" vertex="1" parent="1">
          <mxGeometry x="500" y="-510" width="320" height="170" as="geometry" />
        </mxCell>
        <mxCell id="TU5sISVLhS4vJqzaJQvi-12" value="&amp;nbsp; &amp;nbsp;&lt;font style=&quot;font-size: 29px;&quot;&gt;BookName&lt;/font&gt;" style="ellipse;whiteSpace=wrap;html=1;" vertex="1" parent="1">
          <mxGeometry x="485.63" y="-250" width="320" height="170" as="geometry" />
        </mxCell>
        <mxCell id="TU5sISVLhS4vJqzaJQvi-13" value="&lt;font style=&quot;font-size: 31px;&quot;&gt;Author&lt;/font&gt;" style="ellipse;whiteSpace=wrap;html=1;" vertex="1" parent="1">
          <mxGeometry x="480" y="40" width="320" height="170" as="geometry" />
        </mxCell>
        <mxCell id="TU5sISVLhS4vJqzaJQvi-15" value="" style="endArrow=none;html=1;rounded=0;" edge="1" parent="1">
          <mxGeometry width="50" height="50" relative="1" as="geometry">
            <mxPoint x="110" y="-50" as="sourcePoint" />
            <mxPoint x="510" y="-400" as="targetPoint" />
          </mxGeometry>
        </mxCell>
        <mxCell id="TU5sISVLhS4vJqzaJQvi-16" value="" style="endArrow=none;html=1;rounded=0;" edge="1" parent="1">
          <mxGeometry width="50" height="50" relative="1" as="geometry">
            <mxPoint x="110" y="-50" as="sourcePoint" />
            <mxPoint x="480" y="109.06" as="targetPoint" />
          </mxGeometry>
        </mxCell>
        <mxCell id="TU5sISVLhS4vJqzaJQvi-17" value="" style="endArrow=none;html=1;rounded=0;" edge="1" parent="1">
          <mxGeometry width="50" height="50" relative="1" as="geometry">
            <mxPoint x="110" y="-50" as="sourcePoint" />
            <mxPoint x="580" y="330" as="targetPoint" />
          </mxGeometry>
        </mxCell>
        <mxCell id="TU5sISVLhS4vJqzaJQvi-18" value="&lt;font style=&quot;font-size: 30px;&quot;&gt;Publisher&lt;/font&gt;" style="ellipse;whiteSpace=wrap;html=1;" vertex="1" parent="1">
          <mxGeometry x="470" y="330" width="320" height="170" as="geometry" />
        </mxCell>
        <mxCell id="TU5sISVLhS4vJqzaJQvi-19" value="" style="endArrow=none;html=1;rounded=0;" edge="1" parent="1">
          <mxGeometry width="50" height="50" relative="1" as="geometry">
            <mxPoint x="110" y="-50" as="sourcePoint" />
            <mxPoint x="490" y="-150" as="targetPoint" />
          </mxGeometry>
        </mxCell>
        <mxCell id="TU5sISVLhS4vJqzaJQvi-20" value="&lt;font style=&quot;font-size: 26px;&quot;&gt;DataBase&lt;/font&gt;" style="text;html=1;align=center;verticalAlign=middle;resizable=0;points=[];autosize=1;strokeColor=none;fillColor=none;" vertex="1" parent="1">
          <mxGeometry x="1260" y="83" width="140" height="40" as="geometry" />
        </mxCell>
        <mxCell id="TU5sISVLhS4vJqzaJQvi-21" value="" style="endArrow=none;html=1;rounded=0;" edge="1" parent="1">
          <mxGeometry width="50" height="50" relative="1" as="geometry">
            <mxPoint x="820" y="-410" as="sourcePoint" />
            <mxPoint x="1264" y="-110" as="targetPoint" />
          </mxGeometry>
        </mxCell>
        <mxCell id="TU5sISVLhS4vJqzaJQvi-22" value="" style="endArrow=none;html=1;rounded=0;" edge="1" parent="1">
          <mxGeometry width="50" height="50" relative="1" as="geometry">
            <mxPoint x="800" y="123" as="sourcePoint" />
            <mxPoint x="1270" y="-110" as="targetPoint" />
          </mxGeometry>
        </mxCell>
        <mxCell id="TU5sISVLhS4vJqzaJQvi-23" value="" style="endArrow=none;html=1;rounded=0;exitX=0.803;exitY=0.089;exitDx=0;exitDy=0;exitPerimeter=0;" edge="1" parent="1" source="TU5sISVLhS4vJqzaJQvi-18">
          <mxGeometry width="50" height="50" relative="1" as="geometry">
            <mxPoint x="790" y="420" as="sourcePoint" />
            <mxPoint x="1270" y="-110" as="targetPoint" />
          </mxGeometry>
        </mxCell>
        <mxCell id="TU5sISVLhS4vJqzaJQvi-24" value="" style="endArrow=none;html=1;rounded=0;" edge="1" parent="1">
          <mxGeometry width="50" height="50" relative="1" as="geometry">
            <mxPoint x="805.6300000000001" y="-150" as="sourcePoint" />
            <mxPoint x="1260" y="-110" as="targetPoint" />
          </mxGeometry>
        </mxCell>
      </root>
    </mxGraphModel>
  </diagram>
</mxfile>
